<svg xmlns="http://www.w3.org/2000/svg" width="82" height="27" viewBox="0 0 82 27">
  <g id="avtoraqam" transform="translate(-1179 -182)">
    <g id="Group_21" data-name="Group 21" transform="translate(1186 187)">
      <g id="Group_10" data-name="Group 10" transform="translate(0 0)">
        <g id="Group_9" data-name="Group 9" transform="translate(0 0)">
          <path id="Path_98" data-name="Path 98" d="M64.623,227.55,61.307,222l3.182-5.534a1.247,1.247,0,0,0,.192-.645c0-.874-1.092-1.539-1.936-1.539a.92.92,0,0,0-.9.541l-2.549,4.827-2.549-4.827a.92.92,0,0,0-.9-.541c-.844,0-1.936.666-1.936,1.539a1.247,1.247,0,0,0,.192.645L57.282,222l-3.316,5.555a1.192,1.192,0,0,0-.173.582c0,.895,1.169,1.6,1.993,1.6a.78.78,0,0,0,.709-.333l2.8-5.159,2.8,5.159a.76.76,0,0,0,.709.333c.824,0,1.994-.707,1.994-1.6A1.194,1.194,0,0,0,64.623,227.55Z" transform="translate(-53.793 -214.277)" fill="#fff"/>
        </g>
      </g>
      <g id="Group_12" data-name="Group 12" transform="translate(11.232 0.115)">
        <g id="Group_11" data-name="Group 11" transform="translate(0 0)">
          <path id="Path_99" data-name="Path 99" d="M126.8,214.932a.848.848,0,0,0-.862.6l-2.664,5.354-2.683-5.354c-.211-.4-.383-.6-.862-.6-.824,0-2.032.563-2.032,1.333a.523.523,0,0,0,.038.229l3.968,7.145a.572.572,0,0,1,.077.292v5.229c0,.666.748,1,1.495,1s1.5-.333,1.5-1v-5.229a.574.574,0,0,1,.077-.292l3.949-7.145a.526.526,0,0,0,.038-.229C128.831,215.494,127.623,214.932,126.8,214.932Z" transform="translate(-117.694 -214.932)" fill="#fff"/>
        </g>
      </g>
      <g id="Group_14" data-name="Group 14" transform="translate(22.637 0.115)">
        <g id="Group_13" data-name="Group 13" transform="translate(0 0)">
          <path id="Path_100" data-name="Path 100" d="M191.608,227.326h-5.214l5.405-10.394a2.644,2.644,0,0,0,.326-1.146.788.788,0,0,0-.862-.854h-7.4c-.633,0-.9.729-.9,1.416,0,.75.326,1.417.9,1.417h4.447l-5.405,10.395a2.569,2.569,0,0,0-.326,1.146.771.771,0,0,0,.862.854h8.166c.575,0,.9-.75.9-1.416S192.183,227.326,191.608,227.326Z" transform="translate(-182.58 -214.932)" fill="#fff"/>
        </g>
      </g>
      <g id="Group_16" data-name="Group 16" transform="translate(37.592 0.115)">
        <g id="Group_15" data-name="Group 15" transform="translate(0 0)">
          <path id="Path_101" data-name="Path 101" d="M289.423,214.932c-2.645,0-4.7,1.332-4.7,4.913v5.516c0,3.581,2.051,4.913,4.7,4.913s4.715-1.332,4.715-4.913v-5.516C294.139,216.264,292.068,214.932,289.423,214.932Zm1.725,10.429c0,1.436-.652,2.082-1.725,2.082s-1.706-.646-1.706-2.082v-5.516c0-1.437.633-2.082,1.706-2.082s1.725.645,1.725,2.082Z" transform="translate(-284.727 -214.932)" fill="#fff"/>
        </g>
      </g>
      <g id="Group_18" data-name="Group 18" transform="translate(48.497 0.115)">
        <g id="Group_17" data-name="Group 17" transform="translate(0 0)">
          <path id="Path_102" data-name="Path 102" d="M351.47,214.932c-2.645,0-4.7,1.332-4.7,4.913v5.516c0,3.581,2.051,4.913,4.7,4.913s4.715-1.332,4.715-4.913v-5.516C356.185,216.264,354.115,214.932,351.47,214.932Zm1.725,10.429c0,1.436-.652,2.082-1.725,2.082s-1.706-.646-1.706-2.082v-5.516c0-1.437.633-2.082,1.706-2.082s1.725.645,1.725,2.082Z" transform="translate(-346.774 -214.932)" fill="#fff"/>
        </g>
      </g>
      <g id="Group_20" data-name="Group 20" transform="translate(59.403 0.115)">
        <g id="Group_19" data-name="Group 19" transform="translate(0 0)">
          <path id="Path_103" data-name="Path 103" d="M413.517,214.932c-2.645,0-4.7,1.332-4.7,4.913v5.516c0,3.581,2.051,4.913,4.7,4.913s4.715-1.332,4.715-4.913v-5.516C418.232,216.264,416.162,214.932,413.517,214.932Zm1.725,10.429c0,1.436-.652,2.082-1.725,2.082s-1.706-.646-1.706-2.082v-5.516c0-1.437.633-2.082,1.706-2.082s1.725.645,1.725,2.082Z" transform="translate(-408.821 -214.932)" fill="#fff"/>
        </g>
      </g>
    </g>
    <g id="Rectangle_129" data-name="Rectangle 129" transform="translate(1179 182)" fill="none" stroke="#fff" stroke-width="2">
      <rect width="82" height="27" rx="2" stroke="none"/>
      <rect x="1" y="1" width="80" height="25" rx="1" fill="none"/>
    </g>
  </g>
</svg>
