<svg xmlns="http://www.w3.org/2000/svg" width="52.976" height="44.545" viewBox="0 0 52.976 44.545">
  <g id="elektron-auksion" transform="translate(-2.5 -10.1)">
    <path id="Path_113" data-name="Path 113" d="M61.186,43.128h9.155a1.814,1.814,0,0,0,0-3.628H61.186a1.814,1.814,0,0,0,0,3.628Z" transform="translate(-25.138 -12.989)" fill="#fff"/>
    <path id="Path_114" data-name="Path 114" d="M61.186,57.473h9.155a1.786,1.786,0,0,0,0-3.573H61.186a1.786,1.786,0,1,0,0,3.573Z" transform="translate(-25.138 -19.35)" fill="#fff"/>
    <path id="Path_115" data-name="Path 115" d="M61.186,71.773h9.155a1.786,1.786,0,0,0,0-3.573H61.186a1.786,1.786,0,1,0,0,3.573Z" transform="translate(-25.138 -25.668)" fill="#fff"/>
    <path id="Path_116" data-name="Path 116" d="M51.623,10.1H6.407A3.883,3.883,0,0,0,2.5,14.007v36.73a3.919,3.919,0,0,0,3.907,3.907H51.567a3.919,3.919,0,0,0,3.907-3.907V14.007A3.837,3.837,0,0,0,51.623,10.1ZM19.246,14.119a1.675,1.675,0,1,1-1.675,1.675A1.645,1.645,0,0,1,19.246,14.119Zm-5.136,0a1.675,1.675,0,1,1-1.675,1.675A1.679,1.679,0,0,1,14.111,14.119Zm-5.136,0a1.675,1.675,0,0,1,0,3.349A1.717,1.717,0,0,1,7.3,15.794,1.679,1.679,0,0,1,8.975,14.119ZM51.9,50.738a.264.264,0,0,1-.279.279H6.407a.264.264,0,0,1-.279-.279V21.543H51.9Z" fill="#fff"/>
    <path id="Path_117" data-name="Path 117" d="M20.285,57.837a1.307,1.307,0,0,0,1.228.949H33.4a1.307,1.307,0,0,0,1.228-.949l2.121-7.927a1.272,1.272,0,0,0-1.228-1.619h-.893l-3.852-5.136a1.077,1.077,0,0,0-1.73,1.284l2.9,3.852H22.964l2.9-3.852a1.077,1.077,0,0,0-1.73-1.284l-3.852,5.136h-.893a1.272,1.272,0,0,0-1.228,1.619ZM30.5,51.7a.726.726,0,0,1,1.451,0v3.74a.726.726,0,1,1-1.451,0Zm-3.74,0a.726.726,0,0,1,1.451,0v3.74a.726.726,0,1,1-1.451,0Zm-3.684,0a.726.726,0,0,1,1.451,0v3.74a.739.739,0,0,1-.726.726.79.79,0,0,1-.726-.781Z" transform="translate(-6.899 -14.412)" fill="#fff"/>
  </g>
</svg>
