<svg xmlns="http://www.w3.org/2000/svg" width="50.359" height="50.359" viewBox="0 0 50.359 50.359">
  <g id="elektron-dokon" transform="translate(-1 -1)">
    <path id="Path_110" data-name="Path 110" d="M48.211,1H4.147A3.157,3.157,0,0,0,1,4.147V37.2a3.157,3.157,0,0,0,3.147,3.147H48.211A3.157,3.157,0,0,0,51.359,37.2V4.147A3.157,3.157,0,0,0,48.211,1Zm0,31.081a.4.4,0,0,1-.393.393H4.541a.4.4,0,0,1-.393-.393V4.541a.4.4,0,0,1,.393-.393H47.818a.4.4,0,0,1,.393.393Z" fill="#fff"/>
    <path id="Path_111" data-name="Path 111" d="M29.478,28.764A1.574,1.574,0,0,0,28.129,28H14.173a1.574,1.574,0,0,0-1.349.764L9.991,33.485a1.574,1.574,0,0,0,1.349,2.383h19.62a1.574,1.574,0,0,0,1.349-2.383Z" transform="translate(5.028 15.49)" fill="#fff"/>
    <circle id="Ellipse_11" data-name="Ellipse 11" cx="1.574" cy="1.574" r="1.574" transform="translate(23.012 26.337)" fill="#fff"/>
    <circle id="Ellipse_12" data-name="Ellipse 12" cx="1.574" cy="1.574" r="1.574" transform="translate(32.503 26.337)" fill="#fff"/>
    <path id="Path_112" data-name="Path 112" d="M32.558,11.387H18.281l-1.574-5.24A1.587,1.587,0,0,0,15.2,5.029H10.538a1.574,1.574,0,1,0,0,3.147h3.494l3.919,13.062a1.553,1.553,0,0,0,1.5,1.117H30.371a1.582,1.582,0,0,0,1.511-1.149l.991-3.572h-7.6a1.574,1.574,0,0,1,0-3.147h8.482l.315-1.1A1.571,1.571,0,0,0,32.558,11.387Z" transform="translate(4.569 2.311)" fill="#fff"/>
  </g>
</svg>
