<svg xmlns="http://www.w3.org/2000/svg" width="58.001" height="66.001" viewBox="0 0 58.001 66.001">
  <path id="korgazma-savdo" d="M643.818-1686v-16.5H648v16.5ZM590-1686v-16.5h4.184v16.5Zm11.7-8.087c-4.849-2.5-7.519-5.834-7.519-9.565h2.02c0,2.87,2.282,5.645,6.428,7.781A36.552,36.552,0,0,0,619-1692.392a36.551,36.551,0,0,0,16.369-3.479c4.145-2.136,6.428-4.911,6.428-7.781h2.02c0,3.731-2.669,7.066-7.517,9.565a38.6,38.6,0,0,1-17.3,3.7A38.6,38.6,0,0,1,601.7-1694.087Zm23.266-5a1.573,1.573,0,0,1,1.573-1.573,1.573,1.573,0,0,1,1.574,1.573,1.574,1.574,0,0,1-1.574,1.574A1.574,1.574,0,0,1,624.969-1699.089Zm-9.491,0a1.573,1.573,0,0,1,1.573-1.573,1.573,1.573,0,0,1,1.574,1.573,1.574,1.574,0,0,1-1.574,1.574A1.574,1.574,0,0,1,615.478-1699.089Zm1-3.244a1.553,1.553,0,0,1-1.495-1.118l-3.919-13.062h-3.493a1.578,1.578,0,0,1-1.574-1.573,1.579,1.579,0,0,1,1.574-1.574h4.658a1.586,1.586,0,0,1,1.511,1.118l1.574,5.24h14.277a1.571,1.571,0,0,1,1.511,2l-.315,1.1h-8.482a1.578,1.578,0,0,0-1.574,1.573,1.579,1.579,0,0,0,1.574,1.574h7.6l-.992,3.572a1.581,1.581,0,0,1-1.51,1.149Zm27.337-2.182v-3a2.082,2.082,0,0,1,.6-1.492,2.1,2.1,0,0,1,1.49-.625,2.105,2.105,0,0,1,1.49.625,2.086,2.086,0,0,1,.6,1.492v3Zm-53.817,0v-3a2.087,2.087,0,0,1,2.092-2.081,2.086,2.086,0,0,1,2.092,2.081v3Zm7.021-18.611V-1752h43.961v28.876Zm1.88-26.142v23.409a.827.827,0,0,0,.823.833h38.555a.828.828,0,0,0,.823-.833v-23.409a.827.827,0,0,0-.824-.832H599.724A.827.827,0,0,0,598.9-1749.267Zm1.645,22.577v-3.041l9.269-6.194.013-.008a3.488,3.488,0,0,1,4.208.178l5.934,5.007a5.073,5.073,0,0,0,5.775.53l11.709-6.452v9.98Zm20.475-5.339-5.935-5.007a5.127,5.127,0,0,0-6.185-.272l-8.356,5.582v-16.71h36.909v9.871l-12.5,6.89a3.455,3.455,0,0,1-1.711.454A3.459,3.459,0,0,1,621.022-1732.028Zm-2.74-10.165a4.375,4.375,0,0,0,4.426,4.313,4.374,4.374,0,0,0,4.424-4.313,4.375,4.375,0,0,0-4.424-4.314A4.376,4.376,0,0,0,618.281-1742.193Zm1.645,0a2.72,2.72,0,0,1,2.78-2.65,2.719,2.719,0,0,1,2.779,2.65,2.719,2.719,0,0,1-2.779,2.65A2.72,2.72,0,0,1,619.926-1742.193Z" transform="translate(-590 1752)" fill="#fff"/>
</svg>
