<svg xmlns="http://www.w3.org/2000/svg" width="39.484" height="54.216" viewBox="0 0 39.484 54.216">
  <path id="mobilraqam" d="M-7369.987-1701.712l-.013-34.129v-2.432l13.708-13.713h2.425l19.4-.013a3.938,3.938,0,0,1,3.929,3.921l.026,46.354a3.941,3.941,0,0,1-3.929,3.929l-31.614.013A3.944,3.944,0,0,1-7369.987-1701.712Zm6.625-23.183v20.99h26.207v-21.783h-26.207Zm23.853,19.61h-22.183v-19.023h22.873v19.023Zm-4.681-1.387h3.986v-4.5h-3.986Zm-5.375,0h3.98v-4.5h-3.98Zm-5.373,0h3.988v-4.5h-3.988Zm-5.366-.006h3.986v-5.876h16.114v-4.491h-20.1Zm16.114-11.753h3.986v-4.491h-3.986Zm-5.375,0h3.98v-4.491h-3.98Zm-5.373,0h3.988v-4.491h-3.988Zm-5.374,0h3.986v-4.491h-3.986Z" transform="translate(7370 1751.999)" fill="#fff"/>
</svg>
